<?xml version="1.0" encoding="UTF-8"?>
<svg version="1.1" xmlns="http://www.w3.org/2000/svg" width="2000" height="2090">
<path d="M0 0 C1.66064103 -0.00165292 3.32128167 -0.00374068 4.98192167 -0.0062201 C9.53234892 -0.0117543 14.08275722 -0.01112033 18.63318674 -0.00944251 C23.58895164 -0.00870855 28.54471133 -0.01374107 33.50047398 -0.01801753 C43.32400587 -0.02558223 53.14753233 -0.02778981 62.97106684 -0.02834659 C74.74052727 -0.02926175 86.50998271 -0.03593385 98.27944098 -0.04269341 C126.04975709 -0.05835994 153.82007318 -0.06444034 181.59039283 -0.06910044 C195.72798704 -0.07148613 209.86558078 -0.07519012 224.00317463 -0.07913754 C269.38474017 -0.09180123 314.76630569 -0.10258439 360.14787296 -0.10597799 C362.31584937 -0.10614023 364.48382578 -0.10630579 366.65180219 -0.10647238 C370.99949114 -0.10680617 375.34718009 -0.10713665 379.69486904 -0.10746694 C384.78462456 -0.10785383 389.87438008 -0.10824343 394.96413559 -0.108638 C396.42084809 -0.10875042 397.87756059 -0.10886184 399.33427309 -0.10897225 C446.09329577 -0.11251973 492.85230307 -0.12759055 539.61131988 -0.15091 C573.22062598 -0.1676647 606.82992917 -0.18313218 640.4392395 -0.18764496 C641.47728536 -0.18778519 641.47728536 -0.18778519 642.53630184 -0.18792825 C657.73250525 -0.18994786 672.92870861 -0.19110344 688.12491215 -0.19145683 C693.56334352 -0.19159299 699.00177489 -0.19180198 704.44020626 -0.19205009 C705.79304943 -0.19211165 707.14589259 -0.19216997 708.49873575 -0.19222504 C730.67000633 -0.19317108 752.84125981 -0.20401172 775.01252486 -0.21902954 C796.63481017 -0.23342182 818.2570751 -0.23661614 839.87936389 -0.22858956 C852.71083108 -0.22414606 865.54223228 -0.22794253 878.37369075 -0.24382807 C886.96333934 -0.25362539 895.55294203 -0.25235477 904.14259026 -0.24239184 C909.02462795 -0.23703387 913.90653956 -0.2361782 918.78856647 -0.24890056 C999.29651349 -0.44509351 1072.10794132 21.05604149 1133.33253479 75.13142776 C1134.12240784 75.82655472 1134.12240784 75.82655472 1134.92823792 76.53572464 C1147.88589765 88.01340866 1159.61958901 100.56134033 1170.02345276 114.39851761 C1171.30907829 116.10037699 1172.61768361 117.78228633 1173.93019104 119.46345901 C1205.76449673 160.84333673 1224.3543941 211.51961999 1230.33253479 263.13142776 C1230.41510939 263.83174055 1230.49768399 264.53205333 1230.58276086 265.25358772 C1231.48731 273.86024737 1231.47414914 282.4354939 1231.46396255 291.07655048 C1231.46561447 292.79204749 1231.46770178 294.50754412 1231.47018266 296.22304013 C1231.47572977 300.93508052 1231.47508049 305.64710265 1231.47340507 310.35914525 C1231.47267238 315.4865806 1231.47770064 320.61401088 1231.48198009 325.74144405 C1231.48955219 335.91034159 1231.49175275 346.07923387 1231.49230914 356.24813393 C1231.49322357 368.42920013 1231.4998935 380.61026148 1231.50665597 392.79132558 C1231.5223298 421.53429112 1231.52840377 450.2772551 1231.53306299 479.02022389 C1231.53544787 493.65050933 1231.5391517 508.28079432 1231.54310009 522.91107941 C1231.55576436 569.86421755 1231.56654755 616.81735566 1231.56994055 663.77049548 C1231.57010279 666.01396453 1231.57026835 668.25743358 1231.57043493 670.50090263 C1231.57076873 675.00005611 1231.57109921 679.4992096 1231.57142949 683.99836308 C1231.57181638 689.26554052 1231.57220599 694.53271797 1231.57260056 699.79989542 C1231.57271298 701.30739239 1231.57282439 702.81488936 1231.57293481 704.32238633 C1231.57648263 752.71624669 1231.59155456 801.11009219 1231.61487255 849.50394688 C1231.63162428 884.28434718 1231.64709351 919.06474466 1231.65160751 953.84514904 C1231.65174774 954.91907588 1231.65174774 954.91907588 1231.6518908 956.01469821 C1231.6539103 971.73519143 1231.65506597 987.45568459 1231.65541939 1003.17617793 C1231.65555555 1008.80205639 1231.65576454 1014.42793484 1231.65601264 1020.0538133 C1231.6560742 1021.45331384 1231.65613252 1022.85281439 1231.65618759 1024.25231493 C1231.65710577 1046.51295461 1231.66705433 1068.77357873 1231.68164508 1091.03421329 C1231.6967012 1114.09725988 1231.70083072 1137.16028544 1231.69255212 1160.22333772 C1231.68810432 1173.50644695 1231.69192243 1186.78949249 1231.70779063 1200.07259332 C1231.7175729 1208.95953564 1231.71633148 1217.84643355 1231.7063544 1226.7333755 C1231.70098572 1231.78770849 1231.7001762 1236.84191955 1231.71286312 1241.89624221 C1231.86169671 1305.24410099 1219.19651116 1367.18496261 1182.33253479 1420.13142776 C1181.93469788 1420.70892776 1181.53686096 1421.28642776 1181.12696838 1421.88142776 C1176.30046497 1428.87166603 1171.29162021 1435.66675209 1165.82112688 1442.17190391 C1164.19951902 1444.10037872 1162.58898108 1446.03823358 1160.99135834 1447.9866249 C1151.96087964 1458.88356683 1141.95269632 1468.79616627 1131.93986377 1478.78103389 C1129.30017585 1481.41559394 1126.66635536 1484.05601002 1124.03174168 1486.69564265 C1119.42502399 1491.30954698 1114.81464488 1495.91976644 1110.20177269 1500.52751732 C1103.3421981 1507.37949708 1096.48838711 1514.23722081 1089.63565934 1521.09604729 C1077.39420372 1533.34801248 1065.14705754 1545.59427665 1052.89745395 1557.83809485 C1042.17930868 1568.55120303 1031.46303156 1579.26617553 1020.7485981 1589.98299599 C1019.68127708 1591.05054616 1019.68127708 1591.05054616 1018.59239403 1592.139663 C1015.70380702 1595.02887271 1012.81522706 1597.91808947 1009.92665871 1600.80731784 C982.84971206 1627.89037765 955.76694478 1654.96761018 928.68155596 1682.0422268 C904.62777745 1706.08651157 880.57917856 1730.13596538 856.53492737 1754.18977737 C829.50432309 1781.23109407 802.47048655 1808.26917263 775.43143612 1835.30204409 C772.54850297 1838.18433583 769.66557768 1841.06663544 766.78265572 1843.94893837 C766.07283288 1844.65860306 765.36301004 1845.36826774 764.63167741 1846.09943742 C753.92063525 1856.80820624 743.21205983 1867.51943755 732.50468254 1878.23187065 C720.3302227 1890.41205046 708.15219171 1902.58864706 695.9694491 1914.76054261 C689.1543322 1921.5697914 682.34196533 1928.38176407 675.53356016 1935.1977239 C670.98269241 1939.75308356 666.42818356 1944.3047812 661.87072628 1948.85354824 C659.27624647 1951.4432816 656.68333534 1954.03453179 654.09483927 1956.63024721 C651.30047196 1959.43232821 648.49834727 1962.22657084 645.69548702 1965.02015781 C644.90157644 1965.81875073 644.10766586 1966.61734364 643.28969738 1967.44013634 C637.6134991 1973.07893153 631.58685461 1978.1470002 625.33253479 1983.13142776 C624.16389078 1984.08502791 622.9958143 1985.03932456 621.82862854 1985.99470901 C569.92990172 2027.55345961 505.16439401 2050.35032957 438.68019867 2050.26285553 C437.13041042 2050.26450885 435.58062259 2050.26659679 434.03083545 2050.26907563 C429.78819477 2050.27460473 425.54557442 2050.27397681 421.3029313 2050.27229804 C416.68081255 2050.27156357 412.05869938 2050.27659778 407.43658304 2050.28087306 C398.27621255 2050.28843484 389.11584789 2050.29064519 379.9554746 2050.29120212 C368.97973888 2050.29211757 358.00400851 2050.29879055 347.0282751 2050.30554894 C320.50163552 2050.32159339 293.97499652 2050.32751065 267.44835296 2050.33229769 C254.89266393 2050.3346354 242.33697535 2050.33823827 229.78128667 2050.34199307 C187.4529029 2050.35462674 145.12451912 2050.3654397 102.79613351 2050.36883352 C100.77415193 2050.36899576 98.75217034 2050.36916132 96.73018876 2050.36932791 C92.67530833 2050.3696617 88.6204279 2050.36999218 84.56554747 2050.37032247 C79.81861991 2050.37070935 75.07169234 2050.37109896 70.32476478 2050.37149353 C68.96617346 2050.37160595 67.60758213 2050.37171737 66.24899081 2050.37182778 C22.64262591 2050.37537501 -20.96372249 2050.39044486 -64.57008109 2050.41376553 C-111.3776505 2050.43878806 -158.18521153 2050.45315199 -204.99278879 2050.45436358 C-210.06102912 2050.45453503 -215.12926944 2050.45475046 -220.19750977 2050.45499802 C-221.44540118 2050.45505379 -222.69329259 2050.45510955 -223.9789989 2050.45516701 C-244.02441621 2050.45631563 -264.0698164 2050.46732156 -284.11522794 2050.48188507 C-304.28124396 2050.49628234 -324.44723813 2050.49946887 -344.61325788 2050.49144509 C-356.57823075 2050.48700391 -368.54313283 2050.49078866 -380.50809633 2050.5066836 C-388.52016403 2050.51648908 -396.53218257 2050.51520267 -404.5442499 2050.50524737 C-409.09640236 2050.49989516 -413.64841967 2050.49901447 -418.20056051 2050.51175609 C-497.52544328 2050.71945549 -570.54914525 2028.2297203 -630.66746521 1975.13142776 C-631.45733826 1974.43630081 -631.45733826 1974.43630081 -632.26316833 1973.72713089 C-645.2136508 1962.25580438 -656.94509649 1949.7145958 -667.34519958 1935.88631058 C-668.67445973 1934.12214479 -670.02193807 1932.37298203 -671.37059021 1930.62361526 C-707.70553418 1882.91815474 -728.87953217 1821.6748134 -728.79889297 1761.68229103 C-728.80054575 1760.23935979 -728.80263345 1758.79642899 -728.80511308 1757.35349894 C-728.81064915 1753.39825359 -728.81001296 1749.44303003 -728.80833549 1745.48778206 C-728.80760171 1741.18074091 -728.81263361 1736.87370576 -728.81691051 1732.5666672 C-728.82447629 1724.02843699 -728.82668284 1715.49021304 -728.82723956 1706.95197983 C-728.82815462 1696.72267504 -728.83482641 1686.49337601 -728.84158638 1676.2640737 C-728.85763487 1651.5407962 -728.86354854 1626.81751934 -728.86833513 1602.09423757 C-728.87067242 1590.39341949 -728.87427524 1578.69260191 -728.87803051 1566.99178421 C-728.89086554 1526.92206767 -728.90158434 1486.85235139 -728.90503311 1446.78263283 C-728.90525474 1444.26796525 -728.90547653 1441.75329767 -728.90569846 1439.23863009 C-728.9059191 1436.7179578 -728.90613958 1434.19728551 -728.90635991 1431.67661321 C-728.90680246 1426.61988473 -728.90724957 1421.56315625 -728.90769958 1416.50642776 C-728.90780898 1415.2526561 -728.90791837 1413.99888444 -728.90803107 1412.70711969 C-728.91166039 1372.06834414 -728.92757598 1331.42958645 -728.95088995 1290.79081774 C-728.97550564 1247.80422673 -728.98920678 1204.81764592 -728.99040103 1161.83104765 C-728.99057248 1157.10885405 -728.9907879 1152.38666046 -728.99103546 1147.66446686 C-728.99109123 1146.50176808 -728.991147 1145.33906931 -728.99120446 1144.14113723 C-728.99235344 1125.45795484 -729.00336253 1106.77479082 -729.01792252 1088.09161462 C-729.03231426 1069.2987976 -729.03550942 1050.50600405 -729.02748254 1031.71318303 C-729.02303877 1020.56055069 -729.02683656 1009.40799427 -729.04272105 998.25537197 C-729.05251746 990.78982233 -729.05124861 983.3243255 -729.04128482 975.85877628 C-729.03592617 971.61545108 -729.03507331 967.37227095 -729.04779354 963.12895815 C-729.22538621 899.80499852 -712.91405083 841.14767905 -677.66746521 788.13142776 C-676.64362732 786.58817825 -676.64362732 786.58817825 -675.59910583 785.01375198 C-672.13695215 779.7993926 -668.66333245 774.59278265 -665.18141174 769.39160538 C-661.27944525 763.56160296 -657.41393637 757.71019651 -653.60496521 751.81892776 C-647.42455901 742.26592655 -641.17365288 732.75988545 -634.91746521 723.25642776 C-634.38120514 722.44177048 -633.84494507 721.62711319 -633.29243469 720.78776932 C-630.5238829 716.58212556 -627.75494537 712.37673596 -624.98582458 708.17146683 C-620.22765527 700.94518411 -615.47283024 693.71670159 -610.71788025 686.48830032 C-608.11789102 682.53591137 -605.51766571 678.58367773 -602.91746521 674.63142776 C-601.87579742 673.04809517 -600.83413076 671.46476184 -599.79246521 669.88142776 C-543.54246531 584.38142792 -543.54246531 584.38142792 -541.97993469 582.00638199 C-540.938369 580.42320173 -539.89680406 578.84002099 -538.85523987 577.25683975 C-536.24953437 573.29616027 -533.64381585 569.33548935 -531.03807068 565.37483597 C-526.36892242 558.27784538 -521.69986066 551.18079798 -517.03129578 544.08342361 C-505.17986214 526.06632955 -493.32392165 508.05221598 -481.46202087 490.04201126 C-470.22225833 472.97620715 -458.99016944 455.90536278 -447.76023865 438.83308792 C-443.08454625 431.72494906 -438.40823594 424.61721672 -433.73197937 417.50944901 C-431.12711669 413.5501248 -428.52229289 409.590775 -425.91746521 405.63142776 C-424.87579873 404.04809431 -423.83413206 402.46476098 -422.79246521 400.88142776 C-422.01902771 399.70580276 -422.01902771 399.70580276 -421.22996521 398.50642776 C-316.54246534 239.38142797 -316.54246534 239.38142797 -314.97990417 237.00633621 C-313.93843946 235.42330904 -312.89697625 233.84028088 -311.85551453 232.25725174 C-309.2482702 228.2942261 -306.64099975 224.33121765 -304.03367615 220.36824417 C-298.36395659 211.75054881 -292.69458111 203.13262762 -287.02674866 194.51369095 C-284.47063856 190.62693963 -281.91355889 186.7408325 -279.35447693 182.85603714 C-274.21993789 175.06027142 -269.0940483 167.25911091 -263.98960876 159.44359207 C-261.39429552 155.47174186 -258.79392909 151.50321313 -256.19297791 147.53505325 C-254.94645092 145.63059477 -253.70215 143.72467701 -252.46031189 141.81715775 C-245.31734671 130.84737741 -237.9914349 120.23999541 -229.66746521 110.13142776 C-229.20737061 109.57146606 -228.747276 109.01150436 -228.27323914 108.43457413 C-218.56480795 96.63546175 -208.46378557 84.89020188 -196.66746521 75.13142776 C-195.69035583 74.26646683 -194.71324646 73.40150589 -193.70652771 72.51033401 C-174.55785941 55.58053769 -152.9143503 40.88282647 -129.71482849 30.08943558 C-127.56128028 29.08174142 -125.42581118 28.04037973 -123.28855896 26.99861526 C-84.89621233 8.64388495 -42.41975481 -0.0519646 0 0 Z " fill="#FEFEFE" transform="translate(748.6674652099609,19.868572235107422)"/>
<path d="M0 0 C211.2 0 422.4 0 640 0 C660.18140129 70.04133389 660.18140129 70.04133389 667.9375 98.625 C668.38490386 100.27107397 668.83233275 101.91714113 669.27978516 103.5632019 C675.90490221 127.95266393 682.43523969 152.34296032 688 177 C688.21474976 177.94560791 688.42949951 178.89121582 688.65075684 179.86547852 C710.59302668 276.56805651 728.67583363 374.25430994 752.62892914 508.85446167 C753.00171509 511.00991666 753.37522575 513.16524514 753.74884033 515.32055664 C767.81248142 596.50955359 779.8734168 678.07617457 794.63146973 809.45544434 C794.98966404 812.90058788 795.3512625 816.34535722 795.71386719 819.79003906 C798.16978337 843.17158359 800.37272817 866.56459931 802.25 890 C802.33317474 891.03622498 802.41634949 892.07244995 802.50204468 893.14007568 C802.73905177 896.1139681 802.97207613 899.08813919 803.203125 902.0625 C803.26955704 902.90434845 803.33598907 903.7461969 803.4044342 904.61355591 C803.8553707 910.52685804 804.20083783 916.44366979 804.52508545 922.36499023 C804.57096991 923.19715813 804.61685436 924.02932602 804.66412926 924.88671112 C804.77643711 926.92445477 804.88826699 928.96222475 805 931 C748.07186458 931.02286379 691.14372962 931.04049691 634.21559051 931.05106533 C627.50236958 931.05231272 620.78914865 931.05360927 614.07592773 931.05493164 C613.40786381 931.0550624 612.73979988 931.05519316 612.0514916 931.05532788 C590.37817117 931.05959302 568.70485334 931.06710715 547.03153448 931.07629722 C524.13829649 931.08598699 501.24505954 931.09199362 478.35181946 931.09408849 C464.62929452 931.09546405 450.90677704 931.0998164 437.1842544 931.10791647 C427.788037 931.11318198 418.39182348 931.11480474 408.9956047 931.11350138 C403.56573622 931.11285769 398.13588082 931.11387894 392.70601463 931.11920547 C387.74373792 931.12403807 382.7814832 931.12433958 377.81920552 931.12089889 C376.01569988 931.12047306 374.21219292 931.12176997 372.40868992 931.12488318 C369.97376982 931.12884489 367.5389311 931.12676482 365.10401249 931.12304783 C364.38949709 931.12567484 363.67498169 931.12830186 362.93881431 931.13100848 C358.1141458 931.1141458 358.1141458 931.1141458 357 930 C356.7978659 928.13384588 356.66159627 926.26052863 356.55102539 924.38671875 C356.44059151 922.57101379 356.44059151 922.57101379 356.32792664 920.71862793 C356.25103774 919.37492617 356.17428496 918.03121662 356.09765625 916.6875 C356.0151956 915.29852194 355.93236914 913.90956555 355.84919739 912.52062988 C355.62704304 908.78813117 355.4110624 905.05529881 355.19649506 901.32235718 C355.01802442 898.22916421 354.836119 895.1361767 354.65437317 892.04317474 C353.56332273 873.45324111 352.51704033 854.86136686 351.68383789 836.2578125 C350.93879199 819.82694044 349.93869464 803.42715626 349 787 C322.27 787 295.54 787 268 787 C267.608125 794.074375 267.21625 801.14875 266.8125 808.4375 C266.39233398 815.97314453 266.39233398 815.97314453 266.19728088 819.46652222 C265.53139879 831.39422036 264.87197187 843.3222452 264.22097301 855.2507658 C263.77712052 863.38046579 263.32980588 871.50997151 262.88048267 879.63937092 C262.59839689 884.74617388 262.31808774 889.85306215 262.04165649 894.96017456 C261.77773016 899.83540924 261.50939716 904.71038183 261.2377758 909.58519363 C261.13696804 911.40886094 261.03780887 913.23262016 260.94034004 915.05646896 C260.80617757 917.56240254 260.66627504 920.06795073 260.52490234 922.57348633 C260.48645108 923.3173783 260.44799982 924.06127028 260.40838337 924.82770443 C260.11408216 929.88591784 260.11408216 929.88591784 259 931 C256.7534977 931.09814356 254.50383203 931.12371095 252.25518703 931.12304783 C251.53816275 931.12420167 250.82113846 931.12535552 250.08238617 931.12654433 C247.64925678 931.12921785 245.21619191 931.12468284 242.7830658 931.12025452 C241.03328723 931.12069007 239.28350872 931.12156468 237.53373057 931.12284368 C232.70171437 931.12509179 227.86972013 931.12106307 223.03770673 931.11606562 C217.83590339 931.11176581 212.63410138 931.11320721 207.43229675 931.1139679 C198.41192771 931.11449343 189.39156588 931.11134356 180.37119865 931.10573006 C167.32910013 931.09761903 154.28700512 931.09500025 141.24490435 931.09374207 C120.08733985 931.09155092 98.9297792 931.08488914 77.7722168 931.07543945 C57.21394876 931.06626695 36.65568177 931.05918533 16.09741211 931.05493164 C14.83118871 931.05466892 13.56496531 931.05440619 12.2603715 931.05413551 C5.90839593 931.05283052 -0.44357965 931.0515668 -6.79555523 931.05032361 C-59.53037281 931.03994904 -112.26518622 931.02232903 -165 931 C-165.00441507 929.07861059 -165.00756558 927.15721824 -165.01018143 925.23582554 C-165.01301632 923.63086321 -165.01301632 923.63086321 -165.01590848 921.9934774 C-164.99810876 918.64412795 -164.84427015 915.32672703 -164.60449219 911.98608398 C-164.51713806 910.74271774 -164.42978394 909.4993515 -164.33978271 908.2183075 C-164.24312317 906.90747696 -164.14646362 905.59664642 -164.046875 904.24609375 C-163.94554599 902.8341109 -163.84449918 901.42210778 -163.74371338 900.01008606 C-163.47456909 896.26041585 -163.19924841 892.51122636 -162.92181396 888.76216125 C-162.74877918 886.42098221 -162.57711906 884.0797057 -162.40576172 881.73840332 C-160.64186353 857.67732305 -158.68376118 833.6463485 -156.26501465 809.64123535 C-155.9864504 806.86495957 -155.71201525 804.08829871 -155.43847656 801.31152344 C-154.01409153 786.86848199 -152.53003007 772.43222448 -151 758 C-150.89298767 756.98818665 -150.78597534 755.97637329 -150.67572021 754.93389893 C-141.08768205 664.52488312 -127.75742507 574.53043019 -96.95703125 404.02410889 C-96.17958566 399.94531053 -95.40532031 395.86591781 -94.63241577 391.78625679 C-81.95314894 324.86499905 -68.03451533 258.20329011 -52 192 C-51.75626648 190.99005981 -51.51253296 189.98011963 -51.26141357 188.9395752 C-39.75081801 141.31054662 -26.1333745 94.19806462 -13 47 C-8.71 31.49 -4.42 15.98 0 0 Z " fill="#000000" transform="translate(897,274)"/>
<path d="M0 0 C1.66064103 -0.00165292 3.32128167 -0.00374068 4.98192167 -0.0062201 C9.53234892 -0.0117543 14.08275722 -0.01112033 18.63318674 -0.00944251 C23.58895164 -0.00870855 28.54471133 -0.01374107 33.50047398 -0.01801753 C43.32400587 -0.02558223 53.14753233 -0.02778981 62.97106684 -0.02834659 C74.74052727 -0.02926175 86.50998271 -0.03593385 98.27944098 -0.04269341 C126.04975709 -0.05835994 153.82007318 -0.06444034 181.59039283 -0.06910044 C195.72798704 -0.07148613 209.86558078 -0.07519012 224.00317463 -0.07913754 C269.38474017 -0.09180123 314.76630569 -0.10258439 360.14787296 -0.10597799 C362.31584937 -0.10614023 364.48382578 -0.10630579 366.65180219 -0.10647238 C370.99949114 -0.10680617 375.34718009 -0.10713665 379.69486904 -0.10746694 C384.78462456 -0.10785383 389.87438008 -0.10824343 394.96413559 -0.108638 C396.42084809 -0.10875042 397.87756059 -0.10886184 399.33427309 -0.10897225 C446.09329577 -0.11251973 492.85230307 -0.12759055 539.61131988 -0.15091 C573.22062598 -0.1676647 606.82992917 -0.18313218 640.4392395 -0.18764496 C641.47728536 -0.18778519 641.47728536 -0.18778519 642.53630184 -0.18792825 C657.73250525 -0.18994786 672.92870861 -0.19110344 688.12491215 -0.19145683 C693.56334352 -0.19159299 699.00177489 -0.19180198 704.44020626 -0.19205009 C705.79304943 -0.19211165 707.14589259 -0.19216997 708.49873575 -0.19222504 C730.67000633 -0.19317108 752.84125981 -0.20401172 775.01252486 -0.21902954 C796.63481017 -0.23342182 818.2570751 -0.23661614 839.87936389 -0.22858956 C852.71083108 -0.22414606 865.54223228 -0.22794253 878.37369075 -0.24382807 C886.96333934 -0.25362539 895.55294203 -0.25235477 904.14259026 -0.24239184 C909.02462795 -0.23703387 913.90653956 -0.2361782 918.78856647 -0.24890056 C999.29651349 -0.44509351 1072.10794132 21.05604149 1133.33253479 75.13142776 C1134.12240784 75.82655472 1134.12240784 75.82655472 1134.92823792 76.53572464 C1147.88589765 88.01340866 1159.61958901 100.56134033 1170.02345276 114.39851761 C1171.30907829 116.10037699 1172.61768361 117.78228633 1173.93019104 119.46345901 C1205.76449673 160.84333673 1224.3543941 211.51961999 1230.33253479 263.13142776 C1230.41510939 263.83174055 1230.49768399 264.53205333 1230.58276086 265.25358772 C1231.48731 273.86024737 1231.47414914 282.4354939 1231.46396255 291.07655048 C1231.46561447 292.79204749 1231.46770178 294.50754412 1231.47018266 296.22304013 C1231.47572977 300.93508052 1231.47508049 305.64710265 1231.47340507 310.35914525 C1231.47267238 315.4865806 1231.47770064 320.61401088 1231.48198009 325.74144405 C1231.48955219 335.91034159 1231.49175275 346.07923387 1231.49230914 356.24813393 C1231.49322357 368.42920013 1231.4998935 380.61026148 1231.50665597 392.79132558 C1231.5223298 421.53429112 1231.52840377 450.2772551 1231.53306299 479.02022389 C1231.53544787 493.65050933 1231.5391517 508.28079432 1231.54310009 522.91107941 C1231.55576436 569.86421755 1231.56654755 616.81735566 1231.56994055 663.77049548 C1231.57010279 666.01396453 1231.57026835 668.25743358 1231.57043493 670.50090263 C1231.57076873 675.00005611 1231.57109921 679.4992096 1231.57142949 683.99836308 C1231.57181638 689.26554052 1231.57220599 694.53271797 1231.57260056 699.79989542 C1231.57271298 701.30739239 1231.57282439 702.81488936 1231.57293481 704.32238633 C1231.57648263 752.71624669 1231.59155456 801.11009219 1231.61487255 849.50394688 C1231.63162428 884.28434718 1231.64709351 919.06474466 1231.65160751 953.84514904 C1231.65174774 954.91907588 1231.65174774 954.91907588 1231.6518908 956.01469821 C1231.6539103 971.73519143 1231.65506597 987.45568459 1231.65541939 1003.17617793 C1231.65555555 1008.80205639 1231.65576454 1014.42793484 1231.65601264 1020.0538133 C1231.6560742 1021.45331384 1231.65613252 1022.85281439 1231.65618759 1024.25231493 C1231.65710577 1046.51295461 1231.66705433 1068.77357873 1231.68164508 1091.03421329 C1231.6967012 1114.09725988 1231.70083072 1137.16028544 1231.69255212 1160.22333772 C1231.68810432 1173.50644695 1231.69192243 1186.78949249 1231.70779063 1200.07259332 C1231.7175729 1208.95953564 1231.71633148 1217.84643355 1231.7063544 1226.7333755 C1231.70098572 1231.78770849 1231.7001762 1236.84191955 1231.71286312 1241.89624221 C1231.86169671 1305.24410099 1219.19651116 1367.18496261 1182.33253479 1420.13142776 C1181.93469788 1420.70892776 1181.53686096 1421.28642776 1181.12696838 1421.88142776 C1176.30046497 1428.87166603 1171.29162021 1435.66675209 1165.82112688 1442.17190391 C1164.19951902 1444.10037872 1162.58898108 1446.03823358 1160.99135834 1447.9866249 C1151.96087964 1458.88356683 1141.95269632 1468.79616627 1131.93986377 1478.78103389 C1129.30017585 1481.41559394 1126.66635536 1484.05601002 1124.03174168 1486.69564265 C1119.42502399 1491.30954698 1114.81464488 1495.91976644 1110.20177269 1500.52751732 C1103.3421981 1507.37949708 1096.48838711 1514.23722081 1089.63565934 1521.09604729 C1077.39420372 1533.34801248 1065.14705754 1545.59427665 1052.89745395 1557.83809485 C1042.17930868 1568.55120303 1031.46303156 1579.26617553 1020.7485981 1589.98299599 C1019.68127708 1591.05054616 1019.68127708 1591.05054616 1018.59239403 1592.139663 C1015.70380702 1595.02887271 1012.81522706 1597.91808947 1009.92665871 1600.80731784 C982.84971206 1627.89037765 955.76694478 1654.96761018 928.68155596 1682.0422268 C904.62777745 1706.08651157 880.57917856 1730.13596538 856.53492737 1754.18977737 C829.50432309 1781.23109407 802.47048655 1808.26917263 775.43143612 1835.30204409 C772.54850297 1838.18433583 769.66557768 1841.06663544 766.78265572 1843.94893837 C766.07283288 1844.65860306 765.36301004 1845.36826774 764.63167741 1846.09943742 C753.92063525 1856.80820624 743.21205983 1867.51943755 732.50468254 1878.23187065 C720.3302227 1890.41205046 708.15219171 1902.58864706 695.9694491 1914.76054261 C689.1543322 1921.5697914 682.34196533 1928.38176407 675.53356016 1935.1977239 C670.98269241 1939.75308356 666.42818356 1944.3047812 661.87072628 1948.85354824 C659.27624647 1951.4432816 656.68333534 1954.03453179 654.09483927 1956.63024721 C651.30047196 1959.43232821 648.49834727 1962.22657084 645.69548702 1965.02015781 C644.90157644 1965.81875073 644.10766586 1966.61734364 643.28969738 1967.44013634 C637.6134991 1973.07893153 631.58685461 1978.1470002 625.33253479 1983.13142776 C624.16389078 1984.08502791 622.9958143 1985.03932456 621.82862854 1985.99470901 C569.92990172 2027.55345961 505.16439401 2050.35032957 438.68019867 2050.26285553 C437.13041042 2050.26450885 435.58062259 2050.26659679 434.03083545 2050.26907563 C429.78819477 2050.27460473 425.54557442 2050.27397681 421.3029313 2050.27229804 C416.68081255 2050.27156357 412.05869938 2050.27659778 407.43658304 2050.28087306 C398.27621255 2050.28843484 389.11584789 2050.29064519 379.9554746 2050.29120212 C368.97973888 2050.29211757 358.00400851 2050.29879055 347.0282751 2050.30554894 C320.50163552 2050.32159339 293.97499652 2050.32751065 267.44835296 2050.33229769 C254.89266393 2050.3346354 242.33697535 2050.33823827 229.78128667 2050.34199307 C187.4529029 2050.35462674 145.12451912 2050.3654397 102.79613351 2050.36883352 C100.77415193 2050.36899576 98.75217034 2050.36916132 96.73018876 2050.36932791 C92.67530833 2050.3696617 88.6204279 2050.36999218 84.56554747 2050.37032247 C79.81861991 2050.37070935 75.07169234 2050.37109896 70.32476478 2050.37149353 C68.96617346 2050.37160595 67.60758213 2050.37171737 66.24899081 2050.37182778 C22.64262591 2050.37537501 -20.96372249 2050.39044486 -64.57008109 2050.41376553 C-111.3776505 2050.43878806 -158.18521153 2050.45315199 -204.99278879 2050.45436358 C-210.06102912 2050.45453503 -215.12926944 2050.45475046 -220.19750977 2050.45499802 C-221.44540118 2050.45505379 -222.69329259 2050.45510955 -223.9789989 2050.45516701 C-244.02441621 2050.45631563 -264.0698164 2050.46732156 -284.11522794 2050.48188507 C-304.28124396 2050.49628234 -324.44723813 2050.49946887 -344.61325788 2050.49144509 C-356.57823075 2050.48700391 -368.54313283 2050.49078866 -380.50809633 2050.5066836 C-388.52016403 2050.51648908 -396.53218257 2050.51520267 -404.5442499 2050.50524737 C-409.09640236 2050.49989516 -413.64841967 2050.49901447 -418.20056051 2050.51175609 C-497.52544328 2050.71945549 -570.54914525 2028.2297203 -630.66746521 1975.13142776 C-631.45733826 1974.43630081 -631.45733826 1974.43630081 -632.26316833 1973.72713089 C-645.2136508 1962.25580438 -656.94509649 1949.7145958 -667.34519958 1935.88631058 C-668.67445973 1934.12214479 -670.02193807 1932.37298203 -671.37059021 1930.62361526 C-707.70553418 1882.91815474 -728.87953217 1821.6748134 -728.79889297 1761.68229103 C-728.80054575 1760.23935979 -728.80263345 1758.79642899 -728.80511308 1757.35349894 C-728.81064915 1753.39825359 -728.81001296 1749.44303003 -728.80833549 1745.48778206 C-728.80760171 1741.18074091 -728.81263361 1736.87370576 -728.81691051 1732.5666672 C-728.82447629 1724.02843699 -728.82668284 1715.49021304 -728.82723956 1706.95197983 C-728.82815462 1696.72267504 -728.83482641 1686.49337601 -728.84158638 1676.2640737 C-728.85763487 1651.5407962 -728.86354854 1626.81751934 -728.86833513 1602.09423757 C-728.87067242 1590.39341949 -728.87427524 1578.69260191 -728.87803051 1566.99178421 C-728.89086554 1526.92206767 -728.90158434 1486.85235139 -728.90503311 1446.78263283 C-728.90525474 1444.26796525 -728.90547653 1441.75329767 -728.90569846 1439.23863009 C-728.9059191 1436.7179578 -728.90613958 1434.19728551 -728.90635991 1431.67661321 C-728.90680246 1426.61988473 -728.90724957 1421.56315625 -728.90769958 1416.50642776 C-728.90780898 1415.2526561 -728.90791837 1413.99888444 -728.90803107 1412.70711969 C-728.91166039 1372.06834414 -728.92757598 1331.42958645 -728.95088995 1290.79081774 C-728.97550564 1247.80422673 -728.98920678 1204.81764592 -728.99040103 1161.83104765 C-728.99057248 1157.10885405 -728.9907879 1152.38666046 -728.99103546 1147.66446686 C-728.99109123 1146.50176808 -728.991147 1145.33906931 -728.99120446 1144.14113723 C-728.99235344 1125.45795484 -729.00336253 1106.77479082 -729.01792252 1088.09161462 C-729.03231426 1069.2987976 -729.03550942 1050.50600405 -729.02748254 1031.71318303 C-729.02303877 1020.56055069 -729.02683656 1009.40799427 -729.04272105 998.25537197 C-729.05251746 990.78982233 -729.05124861 983.3243255 -729.04128482 975.85877628 C-729.03592617 971.61545108 -729.03507331 967.37227095 -729.04779354 963.12895815 C-729.22538621 899.80499852 -712.91405083 841.14767905 -677.66746521 788.13142776 C-676.64362732 786.58817825 -676.64362732 786.58817825 -675.59910583 785.01375198 C-672.13695215 779.7993926 -668.66333245 774.59278265 -665.18141174 769.39160538 C-661.27944525 763.56160296 -657.41393637 757.71019651 -653.60496521 751.81892776 C-647.42455901 742.26592655 -641.17365288 732.75988545 -634.91746521 723.25642776 C-634.38120514 722.44177048 -633.84494507 721.62711319 -633.29243469 720.78776932 C-630.5238829 716.58212556 -627.75494537 712.37673596 -624.98582458 708.17146683 C-620.22765527 700.94518411 -615.47283024 693.71670159 -610.71788025 686.48830032 C-608.11789102 682.53591137 -605.51766571 678.58367773 -602.91746521 674.63142776 C-601.87579742 673.04809517 -600.83413076 671.46476184 -599.79246521 669.88142776 C-543.54246531 584.38142792 -543.54246531 584.38142792 -541.97993469 582.00638199 C-540.938369 580.42320173 -539.89680406 578.84002099 -538.85523987 577.25683975 C-536.24953437 573.29616027 -533.64381585 569.33548935 -531.03807068 565.37483597 C-526.36892242 558.27784538 -521.69986066 551.18079798 -517.03129578 544.08342361 C-505.17986214 526.06632955 -493.32392165 508.05221598 -481.46202087 490.04201126 C-470.22225833 472.97620715 -458.99016944 455.90536278 -447.76023865 438.83308792 C-443.08454625 431.72494906 -438.40823594 424.61721672 -433.73197937 417.50944901 C-431.12711669 413.5501248 -428.52229289 409.590775 -425.91746521 405.63142776 C-424.87579873 404.04809431 -423.83413206 402.46476098 -422.79246521 400.88142776 C-422.01902771 399.70580276 -422.01902771 399.70580276 -421.22996521 398.50642776 C-316.54246534 239.38142797 -316.54246534 239.38142797 -314.97990417 237.00633621 C-313.93843946 235.42330904 -312.89697625 233.84028088 -311.85551453 232.25725174 C-309.2482702 228.2942261 -306.64099975 224.33121765 -304.03367615 220.36824417 C-298.36395659 211.75054881 -292.69458111 203.13262762 -287.02674866 194.51369095 C-284.47063856 190.62693963 -281.91355889 186.7408325 -279.35447693 182.85603714 C-274.21993789 175.06027142 -269.0940483 167.25911091 -263.98960876 159.44359207 C-261.39429552 155.47174186 -258.79392909 151.50321313 -256.19297791 147.53505325 C-254.94645092 145.63059477 -253.70215 143.72467701 -252.46031189 141.81715775 C-245.31734671 130.84737741 -237.9914349 120.23999541 -229.66746521 110.13142776 C-229.20737061 109.57146606 -228.747276 109.01150436 -228.27323914 108.43457413 C-218.56480795 96.63546175 -208.46378557 84.89020188 -196.66746521 75.13142776 C-195.69035583 74.26646683 -194.71324646 73.40150589 -193.70652771 72.51033401 C-174.55785941 55.58053769 -152.9143503 40.88282647 -129.71482849 30.08943558 C-127.56128028 29.08174142 -125.42581118 28.04037973 -123.28855896 26.99861526 C-84.89621233 8.64388495 -42.41975481 -0.0519646 0 0 Z M-38.66746521 100.13142776 C-39.6109824 100.31644173 -40.55449959 100.5014557 -41.52660821 100.69207615 C-96.71270532 111.58945305 -139.80142466 147.2486646 -170.45457458 192.86580276 C-171.07614441 193.7945723 -171.69771423 194.72334183 -172.33811951 195.68025589 C-174.22493315 198.49891053 -176.12030078 201.31165606 -178.01707458 204.12361526 C-183.91688266 212.89142371 -189.72132196 221.7000702 -195.28001404 230.68837357 C-198.96097974 236.63677579 -202.82252007 242.45442158 -206.72996521 248.25642776 C-208.30224625 250.60146665 -209.87186415 252.94828091 -211.44090271 255.29549026 C-211.85436447 255.91381729 -212.26782623 256.53214432 -212.69381714 257.16920853 C-218.12197012 265.29613154 -223.48722057 273.46453859 -228.85496521 281.63142776 C-229.38486053 282.4375148 -229.91475586 283.24360184 -230.46070862 284.07411575 C-233.67887699 288.97000772 -236.89579868 293.86671765 -240.11222839 298.76375198 C-242.57409721 302.51167456 -245.03679232 306.25905403 -247.49949646 310.00642776 C-250.33534214 314.32167601 -253.1711413 318.63695474 -256.00657654 322.95247269 C-266.16764591 338.41716334 -276.3389184 353.87513831 -286.51023865 369.33308792 C-291.20953738 376.47495488 -295.90823644 383.61721637 -300.60697937 390.75944901 C-303.21044996 394.7167915 -305.81395956 398.67410833 -308.41746521 402.63142776 C-309.45913206 404.21476098 -310.50079873 405.79809431 -311.54246521 407.38142776 C-317.79246523 416.88142779 -317.79246523 416.88142779 -319.35491943 419.25635147 C-320.39674691 420.83993371 -321.43856616 422.42352136 -322.4803772 424.00711441 C-325.08201615 427.96168386 -327.6837972 431.91615969 -330.28587341 435.87044144 C-335.00362751 443.04014819 -339.72029837 450.21055637 -344.43173218 457.38441849 C-347.07211588 461.40471101 -349.71339836 465.42441257 -352.35496521 469.44392776 C-352.87043915 470.228423 -353.38591309 471.01291824 -353.91700745 471.82118607 C-359.50945724 480.32977823 -365.11915229 488.82620061 -370.77684021 497.29158401 C-371.27130142 498.03163177 -371.76576263 498.77167953 -372.27520752 499.53415298 C-374.59235915 503.00064287 -376.91267991 506.46494443 -379.23851013 509.92561722 C-383.97202683 516.98430337 -388.56280771 524.11297181 -393.04360962 531.33478165 C-396.87522125 537.49864176 -400.86917622 543.54522895 -404.91746521 549.56892776 C-405.67914778 550.70699915 -406.44053105 551.84527088 -407.2016449 552.98372269 C-409.25188409 556.04953557 -411.30454278 559.11371966 -413.3578949 562.17744827 C-417.54852879 568.43019592 -421.73623205 574.68488906 -425.91746521 580.94392776 C-426.62443542 582.00210205 -426.62443542 582.00210205 -427.34568787 583.08165359 C-433.53793726 592.35711386 -439.62121325 601.68925033 -445.56761169 611.12483597 C-450.29214895 618.59938358 -455.18083952 625.95752176 -460.10041809 633.30479813 C-467.0275002 643.651492 -473.891366 654.03854834 -480.72996521 664.44392776 C-481.25700043 665.24572464 -481.78403564 666.04752151 -482.32704163 666.87361526 C-485.02840186 670.98348659 -487.72919129 675.09373255 -490.42967224 679.20418167 C-495.15393353 686.39444738 -499.88339101 693.58129399 -504.61256409 700.76832962 C-507.21183358 704.71863156 -509.81071368 708.66918966 -512.40965271 712.61970901 C-516.07498648 718.19108799 -519.7405225 723.76233381 -523.40629578 729.33342361 C-534.9369466 746.85724491 -546.46423164 764.38326206 -557.98191833 781.91560745 C-563.6042813 790.4734513 -569.23109458 799.02834764 -574.86279297 807.58005142 C-577.57953196 811.70577294 -580.294734 815.83248735 -583.00608826 819.96175003 C-584.03511828 821.52874085 -585.06417049 823.09571712 -586.09324646 824.66267776 C-586.58550217 825.41230286 -587.07775787 826.16192795 -587.58493042 826.93426895 C-590.27331369 831.02416957 -592.97995391 835.10068924 -595.71043396 839.16267776 C-611.46017883 862.70278864 -622.06906646 886.65188938 -628.66746521 914.13142776 C-628.84728943 914.83557816 -629.02711365 915.53972855 -629.21238708 916.26521683 C-632.22871645 928.65329326 -632.96546837 941.28470465 -632.92473412 953.98439789 C-632.92743594 955.41007949 -632.9310085 956.83575965 -632.93535858 958.26143718 C-632.94472071 962.14551854 -632.94184748 966.02950494 -632.93680304 969.91359066 C-632.93351282 974.15220487 -632.94183844 978.39079977 -632.94862139 982.62940764 C-632.95889377 990.04743707 -632.96177 997.46544042 -632.95970917 1004.88347626 C-632.95665194 1015.915201 -632.9649992 1026.946897 -632.97545842 1037.97861614 C-632.99477808 1058.83232236 -633.00042591 1079.68601873 -633.00157253 1100.53973284 C-633.00249254 1116.64990716 -633.00661399 1132.76007763 -633.01297379 1148.8702507 C-633.01476896 1153.51197616 -633.01654858 1158.15370162 -633.01832354 1162.79542708 C-633.01876564 1163.9494704 -633.01920773 1165.10351371 -633.01966323 1166.29252803 C-633.03196822 1198.7451765 -633.03986472 1231.19782364 -633.03897667 1263.65047455 C-633.03894551 1264.87348619 -633.03891435 1266.09649783 -633.03888225 1267.35657044 C-633.03871604 1273.55491016 -633.03851796 1279.75324989 -633.03831284 1285.95158961 C-633.03827295 1287.18253857 -633.03823306 1288.41348753 -633.03819196 1289.68173798 C-633.03811108 1292.17101743 -633.03802749 1294.66029689 -633.03794117 1297.14957635 C-633.03671623 1335.86098977 -633.05171993 1374.57236813 -633.0790863 1413.28377151 C-633.10984111 1456.805959 -633.12701671 1500.32812345 -633.12515986 1543.85032248 C-633.12501061 1548.4958202 -633.12491319 1553.14131792 -633.12485123 1557.78681564 C-633.12482792 1558.93059869 -633.12480461 1560.07438174 -633.12478059 1561.25282488 C-633.12471918 1579.61993159 -633.13746413 1597.98700773 -633.15471576 1616.35410536 C-633.17171142 1634.83159292 -633.1736154 1653.309036 -633.16049711 1671.78652707 C-633.15313381 1682.74750205 -633.15668712 1693.70834151 -633.17638179 1704.669302 C-633.18845219 1712.01075203 -633.18571302 1719.35210477 -633.1714408 1726.69355049 C-633.16373679 1730.86347843 -633.16195231 1735.03314572 -633.1783555 1739.20305446 C-633.26769407 1763.49737127 -632.45060931 1787.91650098 -624.91746521 1811.25642776 C-624.57384949 1812.36421585 -624.23023376 1813.47200394 -623.87620544 1814.61336136 C-620.83815755 1824.1405578 -617.13161861 1833.19253738 -612.66746521 1842.13142776 C-612.32634705 1842.83380569 -611.98522888 1843.53618362 -611.6337738 1844.25984573 C-589.1634634 1890.32031899 -547.26795045 1926.18047675 -499.18309021 1943.31502151 C-493.42692603 1945.26439011 -487.61352895 1946.92540295 -481.72996521 1948.44392776 C-480.85122742 1948.67434769 -479.97248962 1948.90476761 -479.06712341 1949.14216995 C-457.45477508 1954.38876445 -435.82144728 1954.57175659 -413.73469851 1954.52303179 C-409.13985748 1954.51625527 -404.54504928 1954.52702118 -399.95021552 1954.53542763 C-391.916067 1954.54774274 -383.88197693 1954.54902938 -375.84782219 1954.5428772 C-363.90009696 1954.53375283 -351.9524254 1954.54184484 -340.00470427 1954.55316844 C-318.65948127 1954.57280073 -297.3142826 1954.57518933 -275.96905272 1954.56997324 C-257.28599245 1954.56541014 -238.60294179 1954.56602262 -219.91988182 1954.57181358 C-217.41051469 1954.57257046 -214.90114756 1954.57332644 -212.39178043 1954.57408153 C-208.61004493 1954.57522676 -204.82830942 1954.57637665 -201.04657392 1954.57754077 C-165.90250506 1954.58824064 -130.75843922 1954.59300794 -95.61436939 1954.58507061 C-94.62177452 1954.58484815 -94.62177452 1954.58484815 -93.60912722 1954.5846212 C-86.2310262 1954.58296237 -78.85292521 1954.58121278 -71.47482423 1954.57942819 C-70.808758 1954.57926716 -70.14269177 1954.57910614 -69.45644172 1954.57894023 C-65.41603538 1954.57796276 -65.41603538 1954.57796276 -61.37562903 1954.57697905 C-18.78042795 1954.5665899 23.81473181 1954.57435292 66.40992737 1954.5979805 C77.1431919 1954.6039245 87.87645645 1954.60981631 98.60972118 1954.61538982 C99.27071932 1954.61573359 99.93171746 1954.61607736 100.61274585 1954.61643155 C136.35058501 1954.63489908 172.08842329 1954.63517751 207.82626611 1954.62979275 C212.85613493 1954.62907673 217.88600375 1954.62840234 222.91587257 1954.6277523 C224.77348585 1954.62749759 224.77348585 1954.62749759 226.66862667 1954.62723773 C245.33213507 1954.62493837 263.99562101 1954.63289439 282.65912437 1954.64604378 C303.89407753 1954.66097854 325.12897819 1954.66176673 346.36393025 1954.64397287 C358.23384988 1954.63443487 370.10364697 1954.63579345 381.97355832 1954.65320756 C389.91940058 1954.66374452 397.86515009 1954.65953034 405.81098331 1954.64372752 C410.32681761 1954.63514711 414.84241295 1954.63254324 419.35823443 1954.64799684 C445.62634679 1954.73163442 471.16091029 1953.4660804 496.33253479 1945.13142776 C497.58115295 1944.72996536 497.58115295 1944.72996536 498.85499573 1944.32039261 C542.70873247 1930.04899096 573.43066996 1901.20860658 605.31320807 1869.27922204 C607.83349541 1866.75636303 610.35672137 1864.23644555 612.8795476 1861.71612585 C617.28637174 1857.31288947 621.69136353 1852.9078269 626.09511185 1848.50151443 C632.64358274 1841.94924105 639.19493432 1835.39985348 645.74682985 1828.85100474 C657.4504562 1817.15262886 669.15123851 1805.45141168 680.8507925 1793.74896317 C691.08515534 1783.51208084 701.32045197 1773.2761333 711.55667114 1763.04110718 C712.23670679 1762.36114791 712.91674244 1761.68118865 713.61738523 1760.98062456 C716.3780706 1758.22025055 719.13875949 1755.45988006 721.89945419 1752.69951537 C747.76792219 1726.83410277 773.63347932 1700.96578103 799.49772564 1675.09614701 C822.47048461 1652.11863908 845.44583246 1629.14372278 868.4233551 1606.17097855 C894.25743507 1580.34225312 920.0898989 1554.51191309 945.91975641 1528.67896497 C948.67280928 1525.92559139 951.42586609 1523.17222174 954.17892456 1520.41885376 C954.85676513 1519.74093411 955.5346057 1519.06301447 956.23298689 1518.3645518 C966.46580614 1508.13059542 976.699858 1497.89787278 986.93450928 1487.6657486 C998.56706936 1476.0360465 1010.19784334 1464.40456147 1021.82626039 1452.77071674 C1028.33312026 1446.2609199 1034.84135023 1439.75249999 1041.35156504 1433.24605827 C1045.70001417 1428.89985147 1050.04664166 1424.55182852 1054.39179339 1420.20232514 C1056.86719464 1417.72454573 1059.34337059 1415.24755462 1061.82176036 1412.77276416 C1064.49326911 1410.10429089 1067.16168708 1407.43276418 1069.82935333 1404.76045036 C1070.59601448 1403.99613038 1071.36267563 1403.2318104 1072.15256894 1402.4443292 C1076.74772369 1397.83313262 1081.09201571 1393.06908333 1085.33253479 1388.13142776 C1086.23200083 1387.12090851 1087.13295041 1386.11170701 1088.03565979 1385.10408401 C1105.42693133 1365.23215565 1118.28640501 1341.22873943 1126.33253479 1316.13142776 C1126.68154846 1315.08487015 1126.68154846 1315.08487015 1127.03761292 1314.01716995 C1135.80117973 1287.41437666 1135.92594323 1259.8940851 1135.84020365 1232.21965004 C1135.8290117 1227.14697108 1135.84135745 1222.07433489 1135.85051113 1217.00165927 C1135.86333869 1208.13798035 1135.86151377 1199.27440173 1135.84973145 1190.41072273 C1135.83225885 1177.22988218 1135.83788135 1164.04911964 1135.84789836 1150.86827491 C1135.86405288 1128.68359255 1135.86134556 1106.49894263 1135.8471508 1084.31426239 C1135.83311499 1062.34921815 1135.8261131 1040.38419254 1135.82885933 1018.41914368 C1135.82902221 1017.03656569 1135.82918425 1015.65398771 1135.82934544 1014.27140972 C1135.83000381 1008.71470905 1135.83070758 1003.15800839 1135.83147078 997.60130773 C1135.83358179 982.07105375 1135.83433496 966.54079985 1135.83405399 951.01054573 C1135.83403542 949.94998465 1135.83403542 949.94998465 1135.83401648 948.8679981 C1135.83352752 926.3588464 1135.82711114 903.84970048 1135.81649685 881.34055138 C1135.81615341 880.61111538 1135.81580997 879.88167939 1135.81545613 879.13013927 C1135.80985826 867.28639125 1135.80392368 855.4426434 1135.79796707 843.59889556 C1135.77436022 796.61721735 1135.76817607 749.63557162 1135.77857971 702.6538887 C1135.77923292 699.68387104 1135.77988424 696.71385337 1135.78053521 693.7438357 C1135.78069625 693.00949616 1135.78085728 692.27515662 1135.7810232 691.51856437 C1135.78280282 683.3852572 1135.78452496 675.25195001 1135.78617764 667.11864281 C1135.786327 666.38920511 1135.78647637 665.65976741 1135.78663026 664.90822554 C1135.79449486 626.19278768 1135.78887445 587.47735269 1135.77806434 548.76191585 C1135.77651526 543.21223425 1135.77500188 537.66255264 1135.77348952 532.11287103 C1135.77292128 530.04328057 1135.7723398 527.97369011 1135.77175778 525.90409966 C1135.76756142 510.78664587 1135.76535459 495.66919533 1135.76844287 480.55174112 C1135.76858148 479.87166351 1135.76872009 479.1915859 1135.7688629 478.49089987 C1135.76957323 475.06731609 1135.77031943 471.64373232 1135.77108026 468.22014854 C1135.77657755 443.44269649 1135.77239176 418.66527175 1135.75109171 393.88782544 C1135.74012322 380.79264458 1135.73729569 367.69752324 1135.74638024 354.60234058 C1135.75161381 345.84636543 1135.74586527 337.09044105 1135.7313269 328.33447654 C1135.7233515 323.35197191 1135.7199517 318.36958726 1135.72989946 313.38708343 C1135.77207225 290.44016937 1135.80528321 267.82279939 1129.64503479 245.50642776 C1129.38867249 244.56025589 1129.13231018 243.61408401 1128.86817932 242.63924026 C1116.74988407 199.50070439 1089.70538875 160.37872851 1053.33253479 134.13142776 C1052.47571106 133.50808548 1052.47571106 133.50808548 1051.60157776 132.87215042 C1009.16686686 102.35770314 961.87619816 95.63476162 911.0177427 95.73982374 C906.10851471 95.74660273 901.19931737 95.73583316 896.29009616 95.7274279 C887.70708863 95.71511518 879.1241358 95.7138251 870.54112244 95.71997833 C857.77733846 95.72910415 845.0136047 95.7210096 832.24982456 95.70968709 C809.44737999 95.69005719 786.64495819 95.68766567 763.84250719 95.69288229 C744.55427029 95.6972926 725.26604191 95.69722293 705.97780494 95.6916234 C703.97073012 95.69104124 701.9636553 95.69047239 699.95658048 95.68990776 C694.57559486 95.68839266 689.19460925 95.68686575 683.81362364 95.68531476 C646.27679077 95.67456688 608.7399607 95.66984709 571.20312691 95.67778492 C570.14301703 95.67800738 570.14301703 95.67800738 569.06149078 95.67823433 C561.18152137 95.67989317 553.30155198 95.68164276 545.42158259 95.68342734 C544.35452016 95.68366888 544.35452016 95.68366888 543.26590092 95.6839153 C538.95064834 95.68489277 538.95064834 95.68489277 534.63539576 95.68587648 C489.13419962 95.69626757 443.63304216 95.6884986 398.1318512 95.66487503 C386.6645108 95.6589311 375.19717038 95.65303932 363.72982979 95.64746571 C363.02363723 95.64712194 362.31744468 95.64677817 361.58985234 95.64642398 C339.80845112 95.63588873 318.02705312 95.63030233 296.24564934 95.62990856 C295.56135581 95.62989578 294.87706228 95.629883 294.17203258 95.62986983 C279.14701542 95.62964149 264.12199854 95.63064809 249.09698153 95.63277888 C243.72031492 95.63353357 238.3436483 95.63421179 232.96698167 95.63485903 C231.62953981 95.63502172 230.29209795 95.63518939 228.95465609 95.63536205 C208.34843922 95.63799332 187.74224749 95.63039769 167.13603592 95.61681175 C144.45475866 95.60188405 121.77353052 95.60107952 99.0922543 95.61888266 C86.41116544 95.62842743 73.73019127 95.62704805 61.04911014 95.60964797 C52.5639128 95.59912305 44.0788024 95.60330851 35.59361355 95.61912801 C30.76894334 95.62772107 25.94449705 95.63028038 21.11983873 95.61485869 C0.79073048 95.55437643 -18.65717613 96.08061696 -38.66746521 100.13142776 Z " fill="#000000" transform="translate(748.6674652099609,19.868572235107422)"/>
<path d="M0 0 C5.96313166 -0.02464574 11.92623395 -0.042834 17.8894043 -0.05493164 C19.91968298 -0.05997278 21.94995802 -0.06680557 23.98022461 -0.07543945 C26.89177347 -0.08751467 29.8032745 -0.09323034 32.71484375 -0.09765625 C33.6283812 -0.10281754 34.54191864 -0.10797882 35.48313904 -0.11329651 C37.65575427 -0.11349168 39.82827296 -0.06211805 42 0 C44.04299231 2.04299231 43.34214306 6.24896525 43.44897461 9.06347656 C43.48492233 9.91127182 43.52087006 10.75906708 43.5579071 11.6325531 C43.67710742 14.46841297 43.78961494 17.30450111 43.90234375 20.140625 C43.98532378 22.1356605 44.06879258 24.13067573 44.15272522 26.12567139 C44.37464179 31.42470443 44.59123049 36.72394095 44.80633545 42.02325439 C45.18648137 51.37512711 45.57441511 60.72667661 45.96484375 70.078125 C46.02849278 71.60951331 46.02849278 71.60951331 46.09342766 73.17183876 C46.69097629 87.49631618 47.3882799 101.81174314 48.19065475 116.12612724 C48.9778938 130.18311836 49.56719095 144.24205389 50.0625 158.3125 C50.21749012 162.66285687 50.37485572 167.01311677 50.53515625 171.36328125 C50.57258942 172.38495392 50.61002258 173.40662659 50.64859009 174.45925903 C50.91338012 181.41499374 51.29814592 188.35223398 51.81420898 195.29370117 C52.05965506 200.19004391 52 205.09750921 52 210 C31.21 210 10.42 210 -11 210 C-11 202.4740572 -10.93549027 195.07339251 -10.51269531 187.57836914 C-10.43443622 186.12048808 -10.43443622 186.12048808 -10.35459614 184.63315487 C-10.18211868 181.43365063 -10.00511197 178.23441393 -9.828125 175.03515625 C-9.70411811 172.74920266 -9.58042236 170.46323218 -9.45701599 168.17724609 C-9.12648636 162.06768596 -8.79221774 155.9583358 -8.45724106 149.8490181 C-7.90197689 139.70374162 -7.35396589 129.55806855 -6.80455589 119.41247368 C-6.59746604 115.59023928 -6.38996649 111.76802726 -6.18244934 107.94581604 C-5.34808304 92.55873969 -4.53390421 77.17077904 -3.74609375 61.78125 C-3.69944958 60.87178556 -3.6528054 59.96232113 -3.60474777 59.02529716 C-3.17389216 50.62355361 -2.74530321 42.22170388 -2.32340145 33.81950569 C-2.17289877 30.83241998 -2.0203073 27.84544346 -1.86720467 24.85848999 C-1.76614886 22.87223033 -1.66797386 20.88582473 -1.56993103 18.89941406 C-1.24412253 12.56341309 -0.78288095 6.29642457 0 0 Z " fill="#FDFDFD" transform="translate(1185,726)"/>
</svg>
