<?xml version="1.0" encoding="UTF-8"?>
<svg version="1.1" xmlns="http://www.w3.org/2000/svg" width="32" height="32">
<path d="M0 0 C0.66 0 1.32 0 2 0 C2 0.66 2 1.32 2 2 C2.66 2 3.32 2 4 2 C4 2.66 4 3.32 4 4 C4.66 4 5.32 4 6 4 C6 4.66 6 5.32 6 6 C6.66 6 7.32 6 8 6 C8 6.66 8 7.32 8 8 C8.66 8 9.32 8 10 8 C10 8.66 10 9.32 10 10 C9.34 10 8.68 10 8 10 C8 10.66 8 11.32 8 12 C7.34 12 6.68 12 6 12 C6 12.66 6 13.32 6 14 C5.34 14 4.68 14 4 14 C4 14.66 4 15.32 4 16 C3.34 16 2.68 16 2 16 C2 16.66 2 17.32 2 18 C1.34 18 0.68 18 0 18 C0 16.68 0 15.36 0 14 C0.66 14 1.32 14 2 14 C2 13.34 2 12.68 2 12 C2.66 12 3.32 12 4 12 C4 11.34 4 10.68 4 10 C4.66 10 5.32 10 6 10 C6 9.34 6 8.68 6 8 C5.34 8 4.68 8 4 8 C4 7.34 4 6.68 4 6 C3.34 6 2.68 6 2 6 C2 5.34 2 4.68 2 4 C1.34 4 0.68 4 0 4 C0 2.68 0 1.36 0 0 Z " fill="#26659F" transform="translate(22,7)"/>
<path d="M0 0 C0.66 0 1.32 0 2 0 C2 1.32 2 2.64 2 4 C1.34 4 0.68 4 0 4 C0 4.66 0 5.32 0 6 C-0.66 6 -1.32 6 -2 6 C-2 6.66 -2 7.32 -2 8 C-2.66 8 -3.32 8 -4 8 C-4 8.66 -4 9.32 -4 10 C-3.34 10 -2.68 10 -2 10 C-2 10.66 -2 11.32 -2 12 C-1.34 12 -0.68 12 0 12 C0 12.66 0 13.32 0 14 C0.66 14 1.32 14 2 14 C2 15.32 2 16.64 2 18 C1.34 18 0.68 18 0 18 C0 17.34 0 16.68 0 16 C-0.66 16 -1.32 16 -2 16 C-2 15.34 -2 14.68 -2 14 C-2.66 14 -3.32 14 -4 14 C-4 13.34 -4 12.68 -4 12 C-4.66 12 -5.32 12 -6 12 C-6 11.34 -6 10.68 -6 10 C-6.66 10 -7.32 10 -8 10 C-8 9.34 -8 8.68 -8 8 C-7.34 8 -6.68 8 -6 8 C-6 7.34 -6 6.68 -6 6 C-5.34 6 -4.68 6 -4 6 C-4 5.34 -4 4.68 -4 4 C-3.34 4 -2.68 4 -2 4 C-2 3.34 -2 2.68 -2 2 C-1.34 2 -0.68 2 0 2 C0 1.34 0 0.68 0 0 Z " fill="#26659F" transform="translate(8,7)"/>
<path d="M0 0 C0.66 0 1.32 0 2 0 C2 1.98 2 3.96 2 6 C1.34 6 0.68 6 0 6 C0 7.65 0 9.3 0 11 C-0.66 11 -1.32 11 -2 11 C-2 12.65 -2 14.3 -2 16 C-2.66 16 -3.32 16 -4 16 C-4 17.32 -4 18.64 -4 20 C-4.66 20 -5.32 20 -6 20 C-6 18.02 -6 16.04 -6 14 C-5.34 14 -4.68 14 -4 14 C-4 12.35 -4 10.7 -4 9 C-3.34 9 -2.68 9 -2 9 C-2 7.35 -2 5.7 -2 4 C-1.34 4 -0.68 4 0 4 C0 2.68 0 1.36 0 0 Z " fill="#26659F" transform="translate(18,6)"/>
</svg>
