<?xml version="1.0" encoding="UTF-8"?>
<svg version="1.1" xmlns="http://www.w3.org/2000/svg" width="2000" height="2104">
<path d="M0 0 C1.83256642 -0.00239653 3.66513187 -0.00566597 5.49769539 -0.0097166 C10.49749702 -0.01826855 15.49722278 -0.01453873 20.49702543 -0.00866088 C25.95027275 -0.00446712 31.40350682 -0.01190574 36.85675085 -0.01781338 C46.40265468 -0.02655538 55.94853705 -0.02789462 65.49444389 -0.02431011 C79.69006933 -0.01899374 93.88567406 -0.02510782 108.08129724 -0.03339304 C134.17517248 -0.04842347 160.26903935 -0.05048406 186.36291804 -0.04807267 C190.05641708 -0.04773419 193.74991612 -0.0474121 197.44341516 -0.04710698 C198.54395175 -0.04701542 198.54395175 -0.04701542 199.6667214 -0.046922 C215.94828269 -0.04564846 232.22984267 -0.04825449 248.51140357 -0.05163305 C252.23247397 -0.0524038 255.95354438 -0.05314854 259.67461478 -0.05389806 C261.16811195 -0.05419976 262.66160912 -0.05450164 264.15510629 -0.05480371 C264.89542364 -0.05495338 265.63574099 -0.05510306 266.3984922 -0.05525728 C267.89599416 -0.05556081 269.39349612 -0.0558655 270.89099808 -0.05617132 C313.36613935 -0.06484098 355.84127946 -0.06949072 398.31642151 -0.06522369 C399.10245408 -0.06514564 399.88848664 -0.06506758 400.69833838 -0.06498716 C409.46281141 -0.06411441 418.22728444 -0.06318515 426.99175747 -0.06223653 C428.17864021 -0.06210826 428.17864021 -0.06210826 429.38950038 -0.06197741 C435.96293417 -0.06126674 435.96293417 -0.06126674 438.9891543 -0.06093518 C489.59183868 -0.05540035 540.19450481 -0.06294023 590.7971859 -0.08170605 C603.54730094 -0.08642855 616.29741599 -0.09110919 629.04753113 -0.09554291 C629.83268584 -0.09581623 630.61784055 -0.09608955 631.42678783 -0.09637116 C655.63955022 -0.10474711 679.85231109 -0.10942255 704.06507492 -0.11025047 C704.82564655 -0.11027684 705.58621818 -0.11030321 706.36983743 -0.11033037 C723.06899837 -0.11087124 739.7681592 -0.1104985 756.4673201 -0.10929066 C762.44304926 -0.10886506 768.41877842 -0.10849993 774.39450759 -0.10816122 C775.88101708 -0.10807591 777.36752657 -0.10798698 778.85403605 -0.1078944 C802.50222459 -0.10644794 826.15040069 -0.11355684 849.79858625 -0.12489836 C874.29040511 -0.1365684 898.78220176 -0.13708935 923.27402075 -0.12505493 C937.38166043 -0.11843285 951.48924174 -0.12004243 965.59687674 -0.13364345 C975.03187072 -0.14190412 984.4668211 -0.13916939 993.90181155 -0.12766818 C999.26984145 -0.12142784 1004.63775768 -0.1197692 1010.00578089 -0.13153151 C1073.09231953 -0.26020023 1133.21450837 11.78248832 1180.93927574 56.26228809 C1182.87598131 58.06141348 1184.86529435 59.75156755 1186.89630699 61.44197559 C1224.7152254 94.6191354 1247.3674233 145.09599153 1254.08380699 194.25447559 C1254.166893 194.85408193 1254.24997901 195.45368827 1254.33558278 196.0714645 C1255.38999598 204.89799621 1255.22471572 213.7576875 1255.21523476 222.63105011 C1255.21688589 224.51512681 1255.21897285 226.39920318 1255.22145486 228.28327897 C1255.22701203 233.46802832 1255.22635083 238.65276111 1255.22467727 243.83751248 C1255.22394558 249.47558998 1255.22897051 255.11366285 1255.23325229 260.75173837 C1255.24083013 271.93761856 1255.24302524 283.12349397 1255.24358134 294.30937646 C1255.24421594 303.61265073 1255.24718503 312.91592235 1255.25179482 322.21919537 C1255.25212495 322.88932604 1255.25245508 323.55945672 1255.25279522 324.24989439 C1255.25414525 326.97931561 1255.25550792 329.70873682 1255.25688733 332.43815802 C1255.27318265 364.73914288 1255.27957518 397.04012701 1255.28433519 429.34111528 C1255.28671936 445.42927809 1255.29042303 461.51744048 1255.29437229 477.60560296 C1255.30703668 529.22628452 1255.31782015 580.84696606 1255.32121275 632.46764914 C1255.32137499 634.93444927 1255.32154055 637.4012494 1255.32170714 639.86804952 C1255.32204093 644.81515534 1255.32237141 649.76226116 1255.32270169 654.70936698 C1255.32308859 660.5010751 1255.3234782 666.29278322 1255.32387276 672.08449134 C1255.32398518 673.74211762 1255.32409659 675.3997439 1255.32420701 677.05737018 C1255.32775549 730.28046914 1255.34283006 783.50355458 1255.36614475 836.72664838 C1255.38289274 874.97465671 1255.39836412 913.22266248 1255.40287971 951.47067451 C1255.40301994 952.65125909 1255.40301994 952.65125909 1255.40316301 953.85569386 C1255.40518234 971.13604473 1255.40633815 988.41639555 1255.40669159 1005.69674653 C1255.40682776 1011.88055113 1255.40703675 1018.06435573 1255.40728484 1024.24816032 C1255.4073464 1025.78648557 1255.40740472 1027.32481083 1255.40745979 1028.86313608 C1255.40837857 1053.34783665 1255.41833429 1077.83252308 1255.43291728 1102.317219 C1255.44755354 1126.99016296 1255.45256258 1151.66308962 1255.44449774 1176.33603716 C1255.44338248 1179.75120542 1255.44237178 1183.1663737 1255.44142342 1186.58154202 C1255.44123345 1187.25096125 1255.44104348 1187.92038047 1255.44084776 1188.61008514 C1255.43795681 1199.81846856 1255.44690795 1211.0268236 1255.45906283 1222.23520072 C1255.46882607 1232.00439078 1255.4676217 1241.77354039 1255.4576266 1251.5427301 C1255.45224433 1257.10343786 1255.45149299 1262.66403465 1255.46413532 1268.22473314 C1255.6209907 1341.92555149 1234.92648643 1401.39413541 1182.3962329 1454.2013731 C1179.2747271 1457.33387702 1176.14505008 1460.4581498 1173.01405403 1463.58116366 C1170.12798526 1466.46211249 1167.24777403 1469.34890832 1164.366777 1472.23492736 C1159.32746816 1477.2814285 1154.28448948 1482.32423834 1149.23902512 1487.36458492 C1141.73619318 1494.85982727 1134.23911743 1502.36080783 1126.74313104 1509.86289561 C1113.3531228 1523.26341751 1099.95741864 1536.65823393 1086.55926125 1550.05060758 C1074.83602622 1561.76880685 1063.11465752 1573.48886896 1051.39513397 1585.21078014 C1050.61704198 1585.9890249 1049.83894999 1586.76726966 1049.03727946 1587.5690976 C1045.87859898 1590.72840078 1042.71992555 1593.88771101 1039.56126373 1597.04703285 C1009.94812535 1626.66628537 980.32916431 1656.27970914 950.707584 1685.89051879 C924.39815793 1712.19045126 898.09391073 1738.49555291 871.79401207 1764.8050127 C842.23199702 1794.37773893 812.66675104 1823.94722884 783.09629017 1853.51151007 C779.94374184 1856.66341698 776.79120138 1859.81533176 773.63866425 1862.96724987 C772.47434315 1864.13133373 772.47434315 1864.13133373 771.28650042 1865.31893444 C759.57074256 1877.03241843 747.85745229 1888.74836612 736.14535904 1900.46551418 C722.82904727 1913.78754453 709.50916671 1927.10599506 696.18457132 1940.41974042 C688.72957954 1947.8688617 681.27734078 1955.3207121 673.82906017 1962.77654392 C668.85166925 1967.75842388 663.87064179 1972.73664816 658.88666006 1977.71193448 C656.04856903 1980.54527509 653.21205262 1983.38014288 650.37994307 1986.21946345 C647.79856995 1988.80734191 645.21256196 1991.3904964 642.62293277 1993.97011242 C641.26438454 1995.32572714 639.91068317 1996.68619407 638.55724403 1998.04690972 C633.47992415 2003.09355074 628.2167501 2007.74279643 622.62281764 2012.21125541 C620.05850817 2014.27483434 617.56984337 2016.41013171 615.08380699 2018.56697559 C607.29601978 2024.93071028 598.70274341 2030.10261027 590.08380699 2035.25447559 C589.44991051 2035.63491016 588.81601402 2036.01534473 588.16290855 2036.40730762 C554.10683585 2056.5175982 514.29891222 2064.43258038 475.16901684 2064.38590336 C473.46910598 2064.38755573 471.76919551 2064.38964325 470.06928566 2064.39212346 C465.40518971 2064.39766466 460.74111221 2064.39702239 456.07701402 2064.39534587 C450.99982775 2064.39461261 445.92264658 2064.39964279 440.8454625 2064.40392089 C430.77860672 2064.41148958 420.71175624 2064.41369337 410.64489791 2064.41424994 C398.58520591 2064.41516471 386.5255188 2064.42183559 374.46582891 2064.42859677 C346.01096352 2064.44426683 317.55609902 2064.450344 289.10123037 2064.4550038 C274.61764852 2064.45738895 260.13406713 2064.46109282 245.65048562 2064.46504089 C199.16687413 2064.47770447 152.68326265 2064.48848799 106.19964946 2064.49188135 C103.97885453 2064.49204359 101.7580596 2064.49220915 99.53726467 2064.49237574 C95.08359845 2064.49270953 90.62993223 2064.49304001 86.17626601 2064.49337029 C80.96236354 2064.49375719 75.74846106 2064.4941468 70.53455858 2064.49454136 C69.04231063 2064.49465378 67.55006268 2064.4947652 66.05781473 2064.49487561 C18.1488252 2064.49842378 -29.76014933 2064.51349753 -77.66913313 2064.53681336 C-112.10318233 2064.55356456 -146.53722869 2064.56903404 -180.97128201 2064.57354832 C-181.68006031 2064.5736418 -182.38883862 2064.57373529 -183.11909506 2064.57383161 C-198.68183021 2064.57585107 -214.24456532 2064.57700677 -229.8073006 2064.57736019 C-235.37664197 2064.57749636 -240.94598332 2064.57770534 -246.51532468 2064.57795345 C-247.90075943 2064.57801501 -249.28619419 2064.57807333 -250.67162894 2064.57812839 C-272.70999247 2064.57904664 -294.74834029 2064.58899588 -316.78669866 2064.60358588 C-339.61760953 2064.61864003 -362.44850364 2064.62277265 -385.27941962 2064.61449292 C-398.42943739 2064.61004434 -411.57939082 2064.61386641 -424.72940011 2064.62973143 C-433.52631556 2064.63951089 -442.32318614 2064.63827494 -451.12010122 2064.6282952 C-456.1238179 2064.62292454 -461.1274114 2064.62212353 -466.13111766 2064.63480392 C-529.44848683 2064.78495723 -587.86017037 2051.39541855 -635.69744301 2007.28572559 C-637.68635099 2005.46489434 -639.72302277 2003.73360153 -641.79119301 2002.00447559 C-681.1361513 1967.47887966 -705.26792354 1911.87962994 -708.91619301 1860.25447559 C-709.05949832 1855.06063928 -709.05427335 1849.86867641 -709.04762077 1844.67341042 C-709.04927263 1843.09460524 -709.05135992 1841.51580046 -709.05384088 1839.93699637 C-709.0593887 1835.59984404 -709.05873857 1831.26271153 -709.05706329 1826.92555679 C-709.05633067 1822.20628951 -709.06135869 1817.48702775 -709.0656383 1812.76776284 C-709.07321081 1803.40812716 -709.07541098 1794.04849719 -709.07596736 1784.68885876 C-709.07688175 1773.47733189 -709.08355155 1762.26581029 -709.09031418 1751.05428569 C-709.10636934 1723.95616178 -709.11227704 1696.85803845 -709.11706293 1669.75991064 C-709.11939949 1656.93783119 -709.12300222 1644.11575219 -709.12675831 1631.29367309 C-709.13939263 1588.0809843 -709.15020577 1544.86829574 -709.15359877 1501.65560519 C-709.15376101 1499.59085235 -709.15392657 1497.52609951 -709.15409315 1495.46134667 C-709.15442694 1491.32059046 -709.15475742 1487.17983426 -709.15508771 1483.03907806 C-709.1554746 1478.19146538 -709.15586421 1473.34385271 -709.15625877 1468.49624004 C-709.15637119 1467.10882438 -709.15648261 1465.72140872 -709.15659303 1464.33399306 C-709.16014103 1419.79282881 -709.17521373 1375.25168071 -709.19853077 1330.71052261 C-709.22354041 1282.91675491 -709.23791661 1235.12300059 -709.23912883 1187.32922524 C-709.23930028 1182.15656992 -709.23951571 1176.98391459 -709.23976326 1171.81125927 C-709.23981903 1170.53762711 -709.2398748 1169.26399495 -709.23993226 1167.95176787 C-709.24108196 1147.47262849 -709.25209721 1126.99350583 -709.26665032 1106.51437209 C-709.28103109 1085.92129481 -709.28424338 1065.32823893 -709.27621034 1044.735158 C-709.27176146 1032.50899065 -709.27558499 1020.2828925 -709.29144884 1008.05673426 C-709.30122734 999.87811349 -709.29999328 991.69954099 -709.29001262 983.52092061 C-709.28464124 978.86866731 -709.28384328 974.2165465 -709.29652134 969.56430439 C-709.35476405 946.77193407 -709.11261675 924.25619174 -703.16619301 902.06697559 C-702.90797768 901.07834522 -702.64976234 900.08971485 -702.38372231 899.07112598 C-698.63985198 885.09468286 -693.85598899 871.80335514 -687.72869301 858.69197559 C-687.13375038 857.40118092 -687.13375038 857.40118092 -686.52678871 856.08430958 C-678.16941324 838.78707972 -666.47655214 822.97368824 -655.79119301 807.06697559 C-648.8098186 796.67371477 -641.85425615 786.28370188 -635.26420021 775.63666248 C-631.91076807 770.22035686 -628.41629909 764.91065412 -624.85369301 759.62947559 C-623.46459852 757.55727825 -622.07665999 755.48430572 -620.68963051 753.41072559 C-620.3183654 752.85569355 -619.9471003 752.30066151 -619.56458473 751.72881031 C-614.32774611 743.88984269 -609.15652185 736.00748087 -603.97869301 728.12947559 C-603.18336662 726.91961994 -603.18336662 726.91961994 -602.37197304 725.68532276 C-599.64296301 721.53384703 -596.91444213 717.38205018 -594.18621254 713.23006153 C-589.45031238 706.02321871 -584.70986347 698.81936902 -579.96962929 691.61537647 C-577.3682854 687.66187342 -574.76725555 683.70816376 -572.16619301 679.75447559 C-571.12452784 678.17114128 -570.08286117 676.58780794 -569.04119301 675.00447559 C-568.52556801 674.22072559 -568.00994301 673.43697559 -567.47869301 672.62947559 C-515.91619301 594.25447559 -464.35369301 515.87947559 -411.22866249 435.12942982 C-410.1870968 433.54624956 -409.14553186 431.96306882 -408.10396767 430.37988758 C-405.49826217 426.4192081 -402.89254365 422.45853718 -400.28679848 418.4978838 C-395.61765022 411.40089321 -390.94858846 404.30384581 -386.28002357 397.20647144 C-374.42858994 379.18937737 -362.57264945 361.17526381 -350.71074867 343.16505909 C-339.47098613 326.09925498 -328.23889723 309.02841061 -317.00896645 291.95613575 C-312.33327405 284.84799689 -307.65696373 277.74026455 -302.98070717 270.63249683 C-300.37584448 266.67317262 -297.77102069 262.71382283 -295.16619301 258.75447559 C-294.12452653 257.17114214 -293.08285986 255.5878088 -292.04119301 254.00447559 C-291.26775551 252.82885059 -291.26775551 252.82885059 -290.47869301 251.62947559 C-260.79119297 206.50447553 -260.79119297 206.50447553 -259.22863197 204.12938404 C-258.18716726 202.54635687 -257.14570405 200.96332871 -256.10424232 199.38029957 C-253.496998 195.41727393 -250.88972755 191.45426548 -248.28240395 187.491292 C-242.61259367 178.87345876 -236.94313458 170.25539502 -231.2752018 161.63632679 C-228.72063007 157.75192199 -226.16510476 153.86815069 -223.60759926 149.98567677 C-218.45461662 142.16179105 -213.31031291 134.33247988 -208.18676186 126.48927784 C-205.57194398 122.48833236 -202.95218749 118.49063328 -200.33184242 114.49330616 C-199.07169105 112.5683091 -197.81373382 110.6418736 -196.55816078 108.71388721 C-190.11215938 98.81763477 -183.7287166 89.14071519 -175.91619301 80.25447559 C-175.22203285 79.44881153 -174.5278727 78.64314747 -173.81267738 77.81306934 C-171.57374783 75.23518752 -169.26247468 72.73413963 -166.91619301 70.25447559 C-166.32838051 69.63266407 -165.74056801 69.01085255 -165.13494301 68.37019825 C-155.1459192 57.89311946 -144.81186047 48.51816233 -132.91619301 40.25447559 C-132.19270668 39.75109669 -131.46922035 39.24771778 -130.7238102 38.72908497 C-91.91980593 12.15473831 -46.69022206 -0.12899258 0 0 Z " fill="#FEFEFE" transform="translate(726.9161930084229,19.745524406433105)"/>
<path d="M0 0 C203.94 0 407.88 0 618 0 C624.30196859 20.79649634 630.51956931 41.5641512 636.3125 62.5 C636.6762809 63.81165023 637.04015371 65.12327496 637.40411377 66.43487549 C660.07067443 148.14674169 678.31222882 230.53465677 709.55123138 393.57780457 C710.01207303 396.06516331 710.47343809 398.55242457 710.93487549 401.03967285 C725.71300709 480.72436766 739.48568052 560.53491222 750.69371796 640.80646515 C750.99655792 642.97534849 751.30005621 645.14413905 751.60357666 647.31292725 C761.24930679 716.32603831 768.94346157 785.58156333 775 855 C775.09087891 856.03825928 775.18175781 857.07651855 775.27539062 858.14624023 C775.82221393 864.40888599 776.35612899 870.6724776 776.875 876.9375 C776.93693542 877.67785492 776.99887085 878.41820984 777.06268311 879.18099976 C777.23109371 881.21275377 777.39306529 883.24503847 777.5546875 885.27734375 C777.68593018 886.92077759 777.68593018 886.92077759 777.81982422 888.59741211 C778.03845732 892.72625975 778 896.86536782 778 901 C635.11 901 492.22 901 345 901 C343.87497111 890.87474003 343.87497111 890.87474003 343.61399841 886.21260071 C343.55372467 885.15713043 343.49345093 884.10166016 343.43135071 883.01420593 C343.36949081 881.88714737 343.30763092 880.76008881 343.24389648 879.59887695 C343.14126495 877.78256775 343.14126495 877.78256775 343.03656006 875.92956543 C342.85090643 872.63444515 342.66744796 869.33921213 342.48510242 866.0439074 C342.29317189 862.58331594 342.09867937 859.12286832 341.90455627 855.66239929 C341.57926455 849.85665213 341.25593903 844.05079805 340.93383789 838.24487305 C340.56197718 831.54239218 340.18717539 824.84008075 339.81076568 818.13785392 C339.44771278 811.67251278 339.08656256 805.20706677 338.72633553 798.74156761 C338.57341385 795.99727293 338.41986337 793.25301451 338.2658062 790.50878334 C338.05080979 786.67694357 337.83861336 782.84495152 337.62670898 779.01293945 C337.56282486 777.8798082 337.49894073 776.74667694 337.43312073 775.57920837 C337.37566681 774.53219757 337.31821289 773.48518677 337.25901794 772.40644836 C337.18353556 771.04958908 337.18353556 771.04958908 337.10652828 769.66531849 C336.99116561 766.77896524 337 763.88865776 337 761 C311.26 761.33 285.52 761.66 259 762 C258.15857111 776.30850139 258.15857111 776.30850139 257.3203125 790.6171875 C256.97688298 796.49126845 256.63315949 802.36533059 256.28710938 808.23925781 C255.95255747 813.91981329 255.61989563 819.60047673 255.2890625 825.28125 C255.23424965 826.22215485 255.1794368 827.16305969 255.12296295 828.13247681 C254.21558299 843.76320316 253.40105507 859.39748057 252.66543579 875.03723145 C251.50266428 899.49733572 251.50266428 899.49733572 250 901 C247.82643399 901.09805334 245.64960668 901.12371138 243.47383022 901.12304783 C242.43374964 901.1247786 242.43374964 901.1247786 241.37265733 901.12654433 C239.01993483 901.12921767 236.66727905 901.12468298 234.31455994 901.12025452 C232.62252857 901.12069007 230.93049726 901.12156469 229.23846632 901.12284368 C224.56607188 901.12509172 219.89370014 901.12106317 215.22130859 901.11606562 C210.19128599 901.11176571 205.16126477 901.11320722 200.13124084 901.1139679 C191.40880464 901.11449342 182.6863759 901.11134362 173.96394157 901.10573006 C161.3526103 901.09761894 148.74128264 901.09500024 136.12994904 901.09374207 C115.67118468 901.09155093 95.21242431 901.08488919 74.75366211 901.07543945 C54.87443054 901.06626692 34.99520005 901.05918531 15.1159668 901.05493164 C13.89156133 901.05466892 12.66715587 901.05440619 11.40564721 901.05413551 C5.26344864 901.05283052 -0.87874994 901.0515668 -7.02094853 901.05032361 C-58.01396844 901.03994908 -109.00698402 901.02232911 -160 901 C-160.00906349 898.96669341 -160.01544909 896.93337481 -160.02075195 894.90005493 C-160.02460403 893.76775263 -160.02845612 892.63545033 -160.03242493 891.46883583 C-159.9802502 885.88715583 -159.59138731 880.33902794 -159.1875 874.7734375 C-159.09857483 873.50980377 -159.00964966 872.24617004 -158.91802979 870.94424438 C-158.62095381 866.75382678 -158.31123014 862.56438656 -158 858.375 C-157.94613632 857.64526978 -157.89227264 856.91553955 -157.83677673 856.16369629 C-151.878177 775.50863518 -143.01007352 695.09265193 -57.84466553 216.67480469 C-57.05643161 213.24551156 -56.27581485 209.81460261 -55.49853516 206.3828125 C-45.95710761 164.34087182 -34.27600872 122.85967457 -22.78536987 81.31898499 C-19.36147811 68.94077252 -15.95612502 56.55771739 -12.57421875 44.16796875 C-12.16570447 42.67220399 -11.75716612 41.17644581 -11.34860229 39.68069458 C-9.84964315 34.1923994 -8.35090682 28.70404417 -6.85437012 23.21508789 C-5.87234125 19.61550322 -4.8877044 16.01664254 -3.90234375 12.41796875 C-3.61824142 11.3739238 -3.3341391 10.32987885 -3.04142761 9.25419617 C-2.78404312 8.31590469 -2.52665863 7.37761322 -2.26147461 6.41088867 C-2.04011337 5.60044601 -1.81875214 4.79000336 -1.59068298 3.95500183 C-1 2 -1 2 0 0 Z " fill="#B6B5D2" transform="translate(979,265)"/>
<path d="M0 0 C13.53 0 27.06 0 41 0 C42.45070307 22.23498228 43.64054502 44.46135163 44.61629152 66.72129226 C44.80535148 71.02328369 44.99733484 75.32514503 45.18881226 79.62702942 C45.50848611 86.81954026 45.82576885 94.01215352 46.14160156 101.20483398 C46.50507791 109.48170412 46.87277727 117.75837898 47.24258292 126.03496855 C47.56321936 133.21358329 47.88159491 140.39229575 48.19810998 147.57109338 C48.38581329 151.82832981 48.57425535 156.08552971 48.76475906 160.34264183 C48.94304401 164.32950277 49.11846568 168.3164801 49.29177666 172.30356026 C49.35528669 173.75430996 49.4197455 175.20501853 49.48528862 176.6556778 C49.5754526 178.6549098 49.66163948 180.65431993 49.74771118 182.6537323 C49.79673395 183.76533313 49.84575672 184.87693396 49.89626503 186.02221966 C50.04380324 191.67966194 50 197.34063425 50 203 C30.2 203 10.4 203 -10 203 C-10 192.64772088 -9.9452181 182.455935 -9.38916016 172.14453125 C-9.32409775 170.87166763 -9.25903534 169.59880402 -9.19200134 168.28736877 C-9.01598265 164.84544091 -8.83468127 161.40381055 -8.65235949 157.96221161 C-8.45917761 154.29675373 -8.2711897 150.6310291 -8.08261108 146.96533203 C-7.72365678 140.00219831 -7.36038433 133.03929732 -6.99540555 126.07647705 C-6.50821935 116.77879847 -6.0268871 107.4808176 -5.54551458 98.18283653 C-5.42771347 95.90745359 -5.30989912 93.63207134 -5.19207764 91.35668945 C-5.15350671 90.61168151 -5.11493577 89.86667356 -5.07519603 89.09908962 C-4.84399697 84.6354583 -4.61188167 80.17187572 -4.37901473 75.70833111 C-3.68452474 62.3951521 -2.99372308 49.08198202 -2.36230469 35.765625 C-2.31567625 34.785867 -2.26904781 33.80610901 -2.22100639 32.79666138 C-2.01415573 28.43674146 -1.8108745 24.07670881 -1.6144104 19.71630859 C-1.54558093 18.24055667 -1.47668717 16.76480775 -1.40771484 15.2890625 C-1.3522348 14.05881348 -1.29675476 12.82856445 -1.23959351 11.56103516 C-0.97941246 7.69401106 -0.48072973 3.84583781 0 0 Z " fill="#FEFEFE" transform="translate(1257,703)"/>
</svg>
